<svg xmlns="http://www.w3.org/2000/svg" viewBox="0 0 204.76 182.62"><path d="M66.71,60.29c-9.8.58-19.1-1.69-21.31-2.14s-2.26-3-1.57-12.3a15.3,15.3,0,0,1,.79-3.8c0-.16.09-.3.14-.45h0c.13-.34.27-.69.41-1s.38-.85.59-1.27.31-.61.49-.9.48-.84.73-1.25.33-.53.51-.78c.27-.41.56-.81.85-1.2a37.9,37.9,0,0,1,6.21-6.53,54.54,54.54,0,0,0-5.42,7.54c-.24.41-.47.82-.7,1.24s-.33.62-.47.92-.4.82-.59,1.25h0c-.15.34-.29.69-.42,1s-.3.85-.43,1.27a12,12,0,0,0-.29,1.26,8.29,8.29,0,0,0-.18,1.38,6.3,6.3,0,0,0,.12,1.69,5,5,0,0,0,.33,1.08,6.23,6.23,0,0,0,.41.76c3.57,5.76,17,7.67,17,7.67-7.68.42-17.17-1.94-17.17-1.94C47.85,58.63,66.71,60.29,66.71,60.29Z" style="fill:#bcbcbc;stroke:#e6e6e6;stroke-miterlimit:10"/><path d="M97.92,16.83c52.71-.68,58.35,24.45,57.78,37.41a8.72,8.72,0,0,1-7.29,8.43C123.82,66,97.92,65.1,97.92,65.1S72,66,47.43,62.67a8.7,8.7,0,0,1-7.28-8.43C39.57,41.28,45.21,16.15,97.92,16.83Z" style="fill:none;stroke:#e6e6e6;stroke-miterlimit:10;stroke-width:0.9955149999999999px"/><path d="M75.1,60.38c4-.32,7.88-.47,11.81-.55s7.86-.1,11.79-.09,7.85.08,11.77.21,7.85.26,11.8.43a95.12,95.12,0,0,1-11.78,1.17c-3.93.2-7.87.25-11.81.24s-7.87-.14-11.8-.37S79,60.91,75.1,60.38Z" style="fill:#e6e6e6"/><path d="M69.41,27.52a8.76,8.76,0,0,1,.4-.88,7.14,7.14,0,0,1,.47-.81c.17-.26.22-.66.55-.74a1.73,1.73,0,0,1,1.26.13l.13.16a1.94,1.94,0,0,1-.08,1.28c-.12.31-.52.29-.79.41a8.26,8.26,0,0,1-.87.34c-.31.08-.6.19-.94.26Z" style="fill:#bcbcbc;stroke:#e6e6e6;stroke-miterlimit:10"/><path d="M67.82,32.91A5.16,5.16,0,0,1,69,33.2a5.65,5.65,0,0,1,1.07.54c.33.21.8.34.93.76A1.76,1.76,0,0,1,70.83,36l-.18.1a2.63,2.63,0,0,1-1.32-.32c-.31-.15-.3-.56-.47-.85s-.34-.59-.53-.89-.4-.6-.62-.92Z" style="fill:#bcbcbc;stroke:#e6e6e6;stroke-miterlimit:10"/><path d="M77.06,29.52a12.39,12.39,0,0,0,1.27-.29c.41-.1.81-.22,1.19-.34s.72-.45,1.13-.38a3.05,3.05,0,0,1,1.42.55l.06.19a2.08,2.08,0,0,1-1,1.26c-.44.25-1,.06-1.42,0a7.2,7.2,0,0,1-1.37-.26A7.51,7.51,0,0,1,77,29.73Z" style="fill:#bcbcbc;stroke:#e6e6e6;stroke-miterlimit:10"/><path d="M83.3,23.63a5.35,5.35,0,0,1,1,0,4.54,4.54,0,0,1,1,.23c.31.1.74.09.89.42a1.54,1.54,0,0,1,0,1.3l-.15.14a2.28,2.28,0,0,1-1.21.11c-.28,0-.31-.4-.47-.62l-.52-.67c-.17-.25-.37-.46-.57-.72Z" style="fill:#bcbcbc;stroke:#e6e6e6;stroke-miterlimit:10"/><path d="M94.49,31.46a2.87,2.87,0,0,1,.43.64,2.33,2.33,0,0,1,.21.74c0,.25.21.59,0,.78a1.27,1.27,0,0,1-1.14.21l-.17-.11a3.94,3.94,0,0,1-.6-.86c-.09-.18.21-.23.33-.37l.37-.44c.14-.17.24-.35.38-.56Z" style="fill:#bcbcbc;stroke:#e6e6e6;stroke-miterlimit:10"/><path d="M85.43,38a7.74,7.74,0,0,1,0,1.08,6.41,6.41,0,0,1-.15,1.07c-.08.35,0,.8-.34,1a1.73,1.73,0,0,1-1.34.33l-.17-.12a2.28,2.28,0,0,1-.23-1.29c0-.33.4-.45.62-.69l1.37-1.48Z" style="fill:#bcbcbc;stroke:#e6e6e6;stroke-miterlimit:10"/><path d="M71.46,45.17c.4.21.76.45,1.15.67s.73.46,1.08.7.84.34,1,.73A2.53,2.53,0,0,1,75,48.8l-.14.15a2.27,2.27,0,0,1-1.57-.21c-.42-.19-.54-.69-.77-1.06a11.9,11.9,0,0,1-.67-1.15c-.19-.41-.39-.8-.54-1.23Z" style="fill:#bcbcbc;stroke:#e6e6e6;stroke-miterlimit:10"/><path d="M57.92,37.27l1,1.66c.15.26.49.45.43.76a2.16,2.16,0,0,1-.54,1.15l-.19.08a1.65,1.65,0,0,1-1.21-.58c-.25-.28-.09-.69-.08-1a5.15,5.15,0,0,1,.11-1,5.68,5.68,0,0,1,.31-1Z" style="fill:#bcbcbc;stroke:#e6e6e6;stroke-miterlimit:10"/><path d="M83.76,48.52c.33-.17.64-.3.94-.48l.86-.47c.28-.16.47-.5.8-.46a2.51,2.51,0,0,1,1.23.48l.09.19A1.7,1.7,0,0,1,87.06,49c-.31.27-.75.12-1.12.12a5.15,5.15,0,0,1-1.11-.1,7.26,7.26,0,0,1-1.06-.33Z" style="fill:#bcbcbc;stroke:#e6e6e6;stroke-miterlimit:10"/><path d="M98.47,38.91c.37.19.7.4,1.06.58l1,.54c.33.17.78.18,1,.52a2.52,2.52,0,0,1,.41,1.39l-.11.17a2,2,0,0,1-1.52.09c-.43-.13-.59-.6-.84-.94a7.28,7.28,0,0,1-.67-1.06A7.91,7.91,0,0,1,98.31,39Z" style="fill:#bcbcbc;stroke:#e6e6e6;stroke-miterlimit:10"/><path d="M102.19,25.75c.33-.17.65-.28,1-.43s.64-.23,1-.32.62-.37.94-.22a2.11,2.11,0,0,1,1,.9l0,.21a1.86,1.86,0,0,1-.93.94c-.33.15-.67-.11-1-.19s-.66-.18-1-.29-.65-.24-1-.39Z" style="fill:#bcbcbc;stroke:#e6e6e6;stroke-miterlimit:10"/><path d="M116.22,23.29c.4.29.75.62,1.13.93s.71.65,1,1,.82.58,1,1.05a2.69,2.69,0,0,1,0,1.68l-.17.11a2.65,2.65,0,0,1-1.55-.64c-.39-.3-.43-.84-.62-1.28s-.37-.88-.54-1.33-.32-.92-.45-1.4Z" style="fill:#bcbcbc;stroke:#e6e6e6;stroke-miterlimit:10"/><path d="M129.68,25.66a9.12,9.12,0,0,1,.53,1,8.94,8.94,0,0,1,.39,1c.1.34.39.69.24,1.05a1.91,1.91,0,0,1-.93,1h-.21a2.11,2.11,0,0,1-.91-1c-.16-.32.1-.65.17-1s.14-.67.23-1,.17-.69.29-1.05Z" style="fill:#bcbcbc;stroke:#e6e6e6;stroke-miterlimit:10"/><path d="M137.86,32.92c.39.06.76.15,1.13.19l1.08.16c.35,0,.75-.11,1,.13a2.51,2.51,0,0,1,.81,1.14l0,.2a1.86,1.86,0,0,1-1.34.63c-.44,0-.74-.36-1.07-.58a7,7,0,0,1-.94-.77,6.79,6.79,0,0,1-.77-.93Z" style="fill:#bcbcbc;stroke:#e6e6e6;stroke-miterlimit:10"/><path d="M140.12,41.29c-.06.38-.18.74-.27,1.12a9.93,9.93,0,0,1-.36,1.09c-.13.36-.12.82-.45,1a2.06,2.06,0,0,1-1.37.37l-.16-.12a2.24,2.24,0,0,1-.14-1.44c.07-.39.49-.53.76-.77s.56-.49.86-.73.61-.46,1-.68Z" style="fill:#bcbcbc;stroke:#e6e6e6;stroke-miterlimit:10"/><path d="M127.05,37.2c0,.45,0,.85,0,1.24s0,.83-.08,1.24.09.87-.17,1.21a2.33,2.33,0,0,1-1.25.86l-.2-.06a2.31,2.31,0,0,1-.51-1.43c0-.43.36-.73.57-1.09a12.12,12.12,0,0,1,.66-1.05c.29-.36.54-.71.83-1Z" style="fill:#bcbcbc;stroke:#e6e6e6;stroke-miterlimit:10"/><path d="M115.29,35.07l2.41-.24c.39,0,.78-.26,1.14-.09a2.54,2.54,0,0,1,1.13.95v.21a2.11,2.11,0,0,1-1.26.89c-.43.12-.83-.19-1.22-.33a8.63,8.63,0,0,1-1.17-.51,8.15,8.15,0,0,1-1.08-.68Z" style="fill:#bcbcbc;stroke:#e6e6e6;stroke-miterlimit:10"/><path d="M110,34.33c.18.47.31.94.49,1.4s.29.93.43,1.38.46.89.38,1.37a2.92,2.92,0,0,1-.68,1.55l-.2,0a2.57,2.57,0,0,1-1.15-1.29c-.22-.46,0-1,0-1.48a14.57,14.57,0,0,1,.17-1.48c.11-.5.19-1,.34-1.47Z" style="fill:#bcbcbc;stroke:#e6e6e6;stroke-miterlimit:10"/><path d="M113.58,44.37c.6,0,1.17,0,1.75,0l1.69-.08a4.67,4.67,0,0,1,1.66-.09,3.84,3.84,0,0,1,1.68.91v.21a3.17,3.17,0,0,1-1.76.93,3.88,3.88,0,0,1-1.76-.33,12.48,12.48,0,0,1-1.7-.55,14,14,0,0,1-1.62-.76Z" style="fill:#bcbcbc;stroke:#e6e6e6;stroke-miterlimit:10"/><path d="M118.41,51.2l2,1.27c.33.21.78.26,1,.62a2.53,2.53,0,0,1,.29,1.43l-.12.16a2,2,0,0,1-1.53-.06c-.41-.16-.53-.65-.76-1a7.4,7.4,0,0,1-.6-1.11,9.88,9.88,0,0,1-.42-1.19Z" style="fill:#bcbcbc;stroke:#e6e6e6;stroke-miterlimit:10"/><path d="M95.34,50.32c.26-.43.55-.82.83-1.23s.59-.77.9-1.14.5-.88,1-1.06a2.78,2.78,0,0,1,1.69-.21l.13.16a2.69,2.69,0,0,1-.5,1.62c-.27.42-.81.51-1.23.75s-.86.46-1.3.68-.89.41-1.36.59Z" style="fill:#bcbcbc;stroke:#e6e6e6;stroke-miterlimit:10"/><path d="M129.38,45.1a1.33,1.33,0,0,1,1.12,0,8.3,8.3,0,0,0,.81.29c.26.08.59,0,.73.21a2.8,2.8,0,0,1,.34,1.16l-.07.19a1.46,1.46,0,0,1-1.24.46c-.37,0-.53-.44-.73-.7a3.58,3.58,0,0,1-.51-.83c-.11-.26-.16-.47-.42-.61Z" style="fill:#bcbcbc;stroke:#e6e6e6;stroke-miterlimit:10"/><path d="M95.78,20.81l-.07,1.37c0,.45-.06.89-.1,1.33s.11.92-.14,1.29a2.65,2.65,0,0,1-1.17,1.08l-.2,0a2.38,2.38,0,0,1-.62-1.51c0-.49.34-.87.55-1.28a12.19,12.19,0,0,1,.71-1.2,13.19,13.19,0,0,1,.85-1.12Z" style="fill:#bcbcbc;stroke:#e6e6e6;stroke-miterlimit:10"/><path d="M141.9,29.27s8.79,8,9.41,15.2S151.1,59,147.86,59s-13.93,1.28-17.69,1,11.4-2.14,13.33-6.63,1-7,2.84-10.71S143.48,30.2,141.9,29.27Z" style="fill:#bcbcbc;stroke:#e6e6e6;stroke-miterlimit:10"/><path d="M46.5,44.91l-.45-.38a8.29,8.29,0,0,1,.18-1.38,26.58,26.58,0,0,0,5.57,4.36,23.07,23.07,0,0,0,6.55,2.57,26.77,26.77,0,0,0,7.36.43,23.28,23.28,0,0,1-10.22-.68A26,26,0,0,1,46.5,44.91Z" style="fill:#bcbcbc;stroke:#e6e6e6;stroke-miterlimit:10"/><path d="M65.88,52.72a25.61,25.61,0,0,1-11.22-.8,26.91,26.91,0,0,1-7.75-3.86,6.23,6.23,0,0,1-.41-.76,5,5,0,0,1-.33-1.08,28,28,0,0,0,4.43,3.2,25,25,0,0,0,7.2,2.82A27.75,27.75,0,0,0,65.88,52.72Z" style="fill:#bcbcbc;stroke:#e6e6e6;stroke-miterlimit:10"/><path d="M48.08,43.27c-.53-.44-1-.89-1.56-1.38.13-.42.27-.84.43-1.27.15.16.29.32.45.47A25.33,25.33,0,0,0,53,45.59a20.73,20.73,0,0,0,5.88,2.32,24.13,24.13,0,0,0,6.62.39,20.91,20.91,0,0,1-9.2-.56A23.52,23.52,0,0,1,48.08,43.27Z" style="fill:#bcbcbc;stroke:#e6e6e6;stroke-miterlimit:10"/><path d="M49.66,41.64c-.79-.65-1.56-1.35-2.29-2.06h0c.19-.43.38-.84.59-1.25.36.43.73.84,1.12,1.23a22.82,22.82,0,0,0,5.13,4.12,17.94,17.94,0,0,0,5.23,2.06,21.11,21.11,0,0,0,5.89.35,18.57,18.57,0,0,1-8.19-.43A21.26,21.26,0,0,1,49.66,41.64Z" style="fill:#bcbcbc;stroke:#e6e6e6;stroke-miterlimit:10"/><path d="M51.23,40a28.46,28.46,0,0,1-2.8-2.6c.23-.42.46-.83.7-1.24A22.13,22.13,0,0,0,50.76,38a21,21,0,0,0,4.65,3.75A16.66,16.66,0,0,0,60,43.57a18.68,18.68,0,0,0,5.15.3A16.25,16.25,0,0,1,58,43.56,18.67,18.67,0,0,1,51.23,40Z" style="fill:#bcbcbc;stroke:#e6e6e6;stroke-miterlimit:10"/><path d="M150.2,50l.61-.39a6.77,6.77,0,0,0-.24-1.38A36.62,36.62,0,0,1,143,52.57a38.34,38.34,0,0,1-8.92,2.61,49.19,49.19,0,0,1-10,.46A42.88,42.88,0,0,0,138,54.92,40.94,40.94,0,0,0,150.2,50Z" style="fill:#bcbcbc;stroke:#e6e6e6;stroke-miterlimit:10"/><path d="M123.81,57.86a47.77,47.77,0,0,0,15.3-.85,43,43,0,0,0,10.54-3.91,5,5,0,0,0,.56-.76,3.64,3.64,0,0,0,.45-1.08,40.85,40.85,0,0,1-6,3.23,42.77,42.77,0,0,1-9.8,2.85A53.14,53.14,0,0,1,123.81,57.86Z" style="fill:#bcbcbc;stroke:#e6e6e6;stroke-miterlimit:10"/><path d="M148,48.32c.73-.44,1.44-.89,2.12-1.39-.17-.42-.37-.84-.59-1.27-.2.17-.39.32-.6.48a34.42,34.42,0,0,1-7.64,4.52,34.88,34.88,0,0,1-8,2.35,43.46,43.46,0,0,1-9,.42,38.53,38.53,0,0,0,12.54-.6A36.72,36.72,0,0,0,148,48.32Z" style="fill:#bcbcbc;stroke:#e6e6e6;stroke-miterlimit:10"/><path d="M145.89,46.69C147,46,148,45.34,149,44.62h0c-.25-.42-.52-.83-.8-1.24-.49.43-1,.84-1.52,1.24a31.27,31.27,0,0,1-7,4.14,30.79,30.79,0,0,1-7.12,2.09,39.13,39.13,0,0,1-8,.37,34.2,34.2,0,0,0,11.16-.46A33.36,33.36,0,0,0,145.89,46.69Z" style="fill:#bcbcbc;stroke:#e6e6e6;stroke-miterlimit:10"/><path d="M143.74,45.06a38.27,38.27,0,0,0,3.81-2.61c-.31-.42-.63-.82-1-1.23a26.8,26.8,0,0,1-2.21,1.86,29,29,0,0,1-6.33,3.77,28.08,28.08,0,0,1-6.24,1.83,34.51,34.51,0,0,1-7,.32,29.93,29.93,0,0,0,9.78-.34A29.76,29.76,0,0,0,143.74,45.06Z" style="fill:#bcbcbc;stroke:#e6e6e6;stroke-miterlimit:10"/><path d="M42,58.93a15.1,15.1,0,0,0-6.44,5,4.58,4.58,0,0,0-1,2c-.26,2,1.8,3.63,3.79,4.12s4.14.39,6,1.32c2.13,1.08,3.35,3.33,4.72,5.29s3.37,3.88,5.75,3.72c3.47-.24,5.22-4.56,8.5-5.71,2-.69,4.24-.11,6.22-.81,1.75-.61,3-2.11,4.41-3.3s3.36-2.15,5.06-1.41c2.62,1.13,2.94,5.53,5.76,6,1.36.23,2.72-.66,4.09-.46,2.76.39,3.2,4.4,5.51,6,1.76,1.19,4.27.59,5.89-.78a15.75,15.75,0,0,0,3.51-5.28,4.3,4.3,0,0,1,1.68-2.11c2-1,4.26,1.32,6.45.91s3.18-3.39,5.37-3.9,3.91,1.54,5.11,3.35,2.88,3.89,5,3.55,3.44-2.86,5.53-2.74c1.71.09,2.73,1.87,4,3a6.23,6.23,0,0,0,9.35-2.19c.61-1.45.75-3.29,2.08-4.13a4.76,4.76,0,0,1,3-.38,15.58,15.58,0,0,0,5.86-.28,5.48,5.48,0,0,0,4-4,5.39,5.39,0,0,0-2.09-4.82,13.41,13.41,0,0,0-4.94-2.3" style="fill:none;stroke:#e6e6e6;stroke-miterlimit:10;stroke-width:0.9955149999999999px"/><path d="M40,62.68a2.2,2.2,0,0,0,1.53,2.05A8.74,8.74,0,0,0,44.2,65a13,13,0,0,1,3.35.48,7.33,7.33,0,0,1,3.27,1.93,11,11,0,0,1,1.86,3A12.05,12.05,0,0,0,54,72.83a3,3,0,0,0,1.87,1.31,7.34,7.34,0,0,0,2.93-.3,5.29,5.29,0,0,1-2.87,1.8,3.91,3.91,0,0,1-2-.13,5.24,5.24,0,0,1-1.69-1,10.3,10.3,0,0,1-2.14-2.76,12.44,12.44,0,0,0-1.51-2.23c-1-1.08-2.75-1.66-4.72-2.13A7.51,7.51,0,0,1,40.65,66a3.33,3.33,0,0,1-1-1.6A2,2,0,0,1,40,62.68Z" style="fill:#e6e6e6"/><path d="M83.44,68.51A2.25,2.25,0,0,0,85,69.86a3.82,3.82,0,0,0,1.84,0c.65-.13,1.36-.34,2.19-.52a7.58,7.58,0,0,1,2.85-.13,5.37,5.37,0,0,1,1.6.56A4.24,4.24,0,0,1,94.8,71a7.7,7.7,0,0,1,1.12,2.49,6.39,6.39,0,0,0,.73,1.82,1.85,1.85,0,0,0,1.81.81,1.68,1.68,0,0,1-1.2.67,2.89,2.89,0,0,1-1.49-.25,5.39,5.39,0,0,1-2-2,10.56,10.56,0,0,0-1.18-1.69,1.71,1.71,0,0,0-.51-.36,2.59,2.59,0,0,0-.66-.19,7.47,7.47,0,0,0-1.91,0,15.19,15.19,0,0,1-2.56,0,4.44,4.44,0,0,1-2.72-1.16A2.44,2.44,0,0,1,83.44,68.51Z" style="fill:#e6e6e6"/><path d="M107,68.85a8.46,8.46,0,0,0,1.79-.15c.42-.07.73-.14,1-.17s.59,0,1,0a9.28,9.28,0,0,0,1.78-.25,2.26,2.26,0,0,1-.4,2.23,3.11,3.11,0,0,1-4.32.48A2.26,2.26,0,0,1,107,68.85Z" style="fill:#e6e6e6"/><path d="M123.57,67.56c1.13,1.15,2.3,2.38,3.6,2.71s2.27-.3,3.58-1.23a8.39,8.39,0,0,1,2.42-1.31,4.49,4.49,0,0,1,1.64-.25,4,4,0,0,1,1.79.5,7.49,7.49,0,0,1,2.1,2.08,7.58,7.58,0,0,0,.63.73,1.85,1.85,0,0,0,.52.34,2.11,2.11,0,0,0,2.36-.67,12.8,12.8,0,0,0,.77-2,5.33,5.33,0,0,1,.81-1.42,3.65,3.65,0,0,1,1.45-1,5.41,5.41,0,0,1,2.94-.23c.88.16,1.62.39,2.34.51a3.23,3.23,0,0,0,2-.13,2,2,0,0,0,1.25-1.68,1.79,1.79,0,0,1,0,1.27,3,3,0,0,1-.78,1.11,3.2,3.2,0,0,1-1.22.69,5.35,5.35,0,0,1-1.35.25c-.88.05-1.72,0-2.43,0a3.57,3.57,0,0,0-1.77.4c-.4.26-.51.51-.7,1.15a11.37,11.37,0,0,1-.81,2.55,4.72,4.72,0,0,1-2.67,2.16,5,5,0,0,1-3.39-.1,4.69,4.69,0,0,1-1.47-1,7.89,7.89,0,0,1-.93-1.1,6,6,0,0,0-1.17-1.39,1.47,1.47,0,0,0-1.22-.16,8.13,8.13,0,0,0-1.91.75,9.45,9.45,0,0,1-2.49,1,4.2,4.2,0,0,1-2.92-.42,5.67,5.67,0,0,1-1.9-1.87A10.92,10.92,0,0,1,123.57,67.56Z" style="fill:#e6e6e6"/><path d="M57.24,93.25C45.38,88.83,38,82.5,38,75.47a10.65,10.65,0,0,1,1.22-4.87" style="fill:none;stroke:#e6e6e6;stroke-miterlimit:10;stroke-width:1.0248300000000001px"/><path d="M156.39,70.08a10.87,10.87,0,0,1,1.5,5.39c0,5.25-4.14,10.1-11.17,14.07" style="fill:none;stroke:#e6e6e6;stroke-miterlimit:10;stroke-width:1.0248300000000001px"/><path d="M41.67,72.42s-6,9.84,15.19,18.2c0,0-8.87-5.87-9.11-8.05,0,0,4.66,3.32,8.77,3C56.52,85.57,45.29,79.23,41.67,72.42Z" style="fill:#bcbcbc;stroke:#e6e6e6;stroke-miterlimit:10"/><path d="M155,72.17s.91,6-1.22,8.29-7.45,7-11.35,7.12c0,0,6.49-3.94,7.53-5.8,0,0-7.53,4.42-10.57,3.09,0,0,8.15-3.47,10.36-6,0,0-5.25,2.75-7.81,2.45C142,81.32,152.87,76.46,155,72.17Z" style="fill:#bcbcbc;stroke:#e6e6e6;stroke-miterlimit:10"/><path d="M165.63,148.86l-.43.09v-27.7l.43-.09c1.45-.27,2.9-.57,4.36-.87l4.45-1c1.49-.34,3-.7,4.52-1.09s3-.77,4.59-1.18,3.1-.86,4.69-1.32,3.16-.94,4.76-1.44,3.24-1,4.88-1.59,3.29-1.13,5-1.73l-.58,1.14c-.19.39-.29.59-.49,1-.08.17-.13.25-.23.44-.5,1-.74,1.47-1.26,2.44-.17.35-.25.5-.43.85-.1.18-.14.27-.24.47-.34.69-.53,1-.87,1.7-.17.34-.26.5-.43.83-.24.49-.37.72-.63,1.2s-.43.85-.71,1.42l-.65,1.21c-.21.45-.33.66-.56,1.09l-.07.14-1.34,2.58c-.06.11-.1.17-.16.3l.14.17.25.31,1.06,1.35.18.24.59.76c.36.43.53.66.87,1.09a8.22,8.22,0,0,0,.52.65c.24.32.37.48.62.79l.05.07,1.3,1.63.44.56c.09.12.15.17.23.27.52.66.77,1,1.3,1.63.27.36.42.53.69.89l.41.5c-1.67.6-3.33,1.19-5,1.73s-3.26,1.09-4.88,1.59-3.19,1-4.76,1.44-3.14.89-4.69,1.32-3.07.81-4.59,1.19-3,.74-4.52,1.08-3,.67-4.45,1S167.08,148.59,165.63,148.86Z" style="fill:none;stroke:#e6e6e6;stroke-miterlimit:10"/><path d="M2.34,111.76,1.92,111c1.67.6,3.33,1.19,5,1.73s3.26,1.09,4.88,1.59,3.19,1,4.76,1.44,3.15.89,4.69,1.32,3.08.81,4.59,1.18,3,.75,4.52,1.09l4.44,1c1.47.3,2.93.6,4.37.87l2.13.4v27.7l-2.13-.4c-1.44-.27-2.9-.57-4.37-.87s-2.95-.64-4.44-1-3-.7-4.52-1.08-3-.78-4.59-1.19-3.11-.86-4.69-1.32-3.16-.94-4.76-1.44-3.23-1-4.88-1.59-3.29-1.13-5-1.73l.56-.67.13-.17.61-.76c.45-.57.67-.86,1.13-1.42l.1-.14c.27-.34.42-.51.69-.86l.51-.64c.3-.4.46-.59.76-1l.64-.82.19-.23c.46-.58.7-.87,1.16-1.47l.29-.37.3-.39,1.14-1.46a1.76,1.76,0,0,0,.24-.3l.2-.24c-.14-.29-.23-.43-.37-.7-.29-.56-.43-.85-.73-1.4-.2-.38-.28-.58-.48-1s-.38-.71-.63-1.2c-.12-.23-.19-.34-.3-.59-.42-.8-.63-1.21-1.05-2-.14-.27-.21-.41-.36-.68s-.18-.36-.3-.59l-1.24-2.39A.7.7,0,0,0,5,117l-.68-1.34c-.52-1-.77-1.51-1.28-2.51C2.76,112.62,2.62,112.34,2.34,111.76Z" style="fill:none;stroke:#e6e6e6;stroke-miterlimit:10"/><path d="M194.12,128.35l1.26,1.61h0l.43-.15-.18-.24-1.06-1.35-.25-.31-.14-.17c.06-.13.1-.19.16-.3l1.34-2.58.07-.14-.45-.06-.12.23-1.44,2.73-.09.16ZM10,127.7,1.19,138.87l.59.21c1.67.6,3.33,1.17,5,1.73s3.28,1.07,4.88,1.57,3.2,1,4.79,1.45,3.13.9,4.69,1.33,3.07.81,4.6,1.18,3,.75,4.52,1.09l4.45,1c1.47.31,2.93.6,4.38.89l2.21.4v-.91c-.68-.11-1.35-.24-2-.37-1.45-.28-2.9-.57-4.36-.88s-2.95-.63-4.44-1-3-.7-4.5-1.08-3.05-.78-4.59-1.19-3.11-.86-4.68-1.32-3.16-.94-4.76-1.44S8.66,140.51,7,140c-1.45-.49-2.91-1-4.37-1.52l.26-.31.72-.93,1.24-1.58.67-.84,1.29-1.63.64-.8,1.35-1.72.58-.74,1.41-1.78.27-.34-.27-.53L9.6,124.88,9,123.72l-1.37-2.65L7,119.84l-1.33-2.58L5,116l-1.3-2.54L3,112l-.13-.26c1.32.47,2.63.91,3.92,1.36,1.64.54,3.28,1.07,4.88,1.57s3.2,1,4.79,1.46,3.13.89,4.69,1.32,3.07.81,4.6,1.18,3,.75,4.52,1.09l4.45,1c1.47.31,2.93.6,4.38.88.74.15,1.48.27,2.21.4v-.9c-.68-.11-1.35-.24-2-.37-1.45-.29-2.9-.57-4.36-.89s-2.95-.63-4.44-1-3-.7-4.5-1.09-3.05-.77-4.59-1.18-3.11-.86-4.68-1.32-3.16-.94-4.76-1.44-3.23-1-4.86-1.58-3.29-1.13-4.95-1.73L1,110.16Zm160.05,20.72,4.45-1c1.49-.34,3-.7,4.52-1.09s3.06-.77,4.61-1.18,3.11-.86,4.69-1.33,3.17-.93,4.79-1.45,3.23-1,4.87-1.57,3.29-1.13,5-1.73l.58-.21-8.85-11.19,9-17.52-1.05.37c-1.66.6-3.32,1.18-4.95,1.73s-3.26,1.08-4.86,1.58-3.19,1-4.77,1.44-3.13.9-4.67,1.32-3.08.81-4.59,1.18-3,.75-4.51,1.09-3,.67-4.43,1-2.92.6-4.37.89a3.43,3.43,0,0,1-.34.06v.91l.52-.1c1.44-.28,2.9-.57,4.37-.88l4.45-1c1.49-.34,3-.7,4.52-1.09s3.06-.77,4.61-1.18,3.11-.86,4.69-1.32,3.17-.94,4.79-1.46,3.23-1,4.87-1.57c1.29-.45,2.61-.89,3.92-1.36l-.28.56-.72,1.38-1.27,2.48-.67,1.29L197.68,120l-.6,1.15-1.36,2.66-.36.69.4.2-.45-.06-.12.23-1.44,2.73-.09.16.46.57,1.26,1.61h0l.57.74,1.41,1.76.61.78,1.36,1.71.64.83,1.3,1.64.69.87.13.16c-1.47.53-2.92,1-4.36,1.52-1.65.54-3.26,1.07-4.86,1.57s-3.19,1-4.77,1.44-3.13.9-4.67,1.32-3.08.81-4.59,1.19-3,.74-4.51,1.08-3,.68-4.43,1-2.92.6-4.37.88a1.86,1.86,0,0,1-.34.06v.92c.17,0,.34-.08.52-.1C167.16,149,168.62,148.73,170.09,148.42Z" style="fill:none;stroke:#e6e6e6;stroke-miterlimit:10"/><path d="M10.21,127c1.54.55,3,1,4.3,1.49l3.81,1.24,3.56,1.09c1.17.36,2.35.7,3.57,1.05s2.49.7,3.84,1.06,2.8.74,4.38,1.13l-1.09-.22c-.6-.12-1.42-.3-2.44-.53s-2.24-.5-3.62-.84-2.94-.72-4.62-1.17-3.51-.94-5.44-1.5-4-1.17-6.08-1.84l.19-.25Z" style="fill:none;stroke:#e6e6e6;stroke-miterlimit:10"/><path d="M8.4,130.5l.29-.37.3-.38c1.65.59,3.16,1.12,4.59,1.6s2.76.92,4,1.33l3.79,1.18c1.25.38,2.51.75,3.81,1.12s2.65.74,4.09,1.13,3,.78,4.67,1.2l-1.21-.23c-.66-.14-1.57-.33-2.7-.59s-2.48-.56-4-.94-3.24-.81-5.09-1.3-3.85-1.06-6-1.68S10.69,131.25,8.4,130.5Z" style="fill:none;stroke:#e6e6e6;stroke-miterlimit:10"/><path d="M6.42,133c.25-.33.38-.49.64-.81,1.54.56,3,1.08,4.32,1.55l3.87,1.31c1.24.41,2.42.79,3.6,1.16s2.33.73,3.51,1.08l3.62,1c1.25.35,2.54.71,3.92,1.07s2.84.74,4.41,1.13l-1-.2L31,139.87l-3.36-.77c-1.28-.31-2.72-.66-4.3-1.06s-3.27-.86-5.07-1.37-3.72-1.06-5.71-1.67S8.53,133.72,6.42,133Z" style="fill:none;stroke:#e6e6e6;stroke-miterlimit:10"/><path d="M4.45,135.49l.69-.86c1.66.63,3.21,1.2,4.67,1.72s2.85,1,4.19,1.45,2.62.87,3.89,1.27,2.53.79,3.8,1.18,2.57.76,3.92,1.14,2.75.77,4.24,1.17,3.07.8,4.78,1.21l-.89-.16-2-.41-2.9-.65-3.73-.9c-1.36-.34-2.85-.72-4.43-1.14s-3.25-.9-5-1.41-3.59-1.07-5.47-1.68S6.42,136.18,4.45,135.49Z" style="fill:none;stroke:#e6e6e6;stroke-miterlimit:10"/><path d="M2.47,138l.14-.18.6-.75c1.57.6,3,1.16,4.43,1.67s2.73,1,4,1.43,2.51.86,3.73,1.26,2.39.78,3.59,1.15,2.38.74,3.6,1.1l3.76,1.09c1.3.36,2.65.73,4.07,1.1s2.93.76,4.54,1.15l-1-.18c-.52-.11-1.24-.25-2.12-.45s-1.95-.42-3.15-.7-2.56-.61-4-1-3.08-.78-4.78-1.25-3.51-1-5.39-1.54-3.84-1.17-5.85-1.82S4.57,138.72,2.47,138Z" style="fill:none;stroke:#e6e6e6;stroke-miterlimit:10"/><path d="M2.34,111.77c1.54.6,3,1.16,4.38,1.67s2.69,1,4,1.43l3.68,1.26c1.2.4,2.38.79,3.55,1.16s2.36.74,3.57,1.11l3.72,1.09c1.28.37,2.62.74,4,1.11s2.9.77,4.49,1.16c-.11,0-.42-.07-.91-.17l-2-.43-2.95-.67-3.79-.93c-1.39-.36-2.9-.75-4.5-1.19s-3.31-.93-5.09-1.46-3.63-1.11-5.54-1.73-3.88-1.29-5.88-2Z" style="fill:none;stroke:#e6e6e6;stroke-miterlimit:10"/><path d="M4.34,115.7c1.46.56,2.84,1.07,4.14,1.54s2.56.91,3.76,1.32,2.35.8,3.48,1.18,2.25.73,3.36,1.07l3.37,1c1.14.34,2.31.68,3.52,1s2.48.69,3.81,1,2.74.72,4.25,1.09L33,124.78l-2.37-.51c-1-.22-2.17-.49-3.51-.81s-2.84-.69-4.48-1.12-3.41-.9-5.28-1.44-3.86-1.12-5.92-1.76S7.21,117.8,5,117.05C4.75,116.51,4.61,116.24,4.34,115.7Z" style="fill:none;stroke:#e6e6e6;stroke-miterlimit:10"/><path d="M6.35,119.6c1.58.59,3.05,1.12,4.44,1.61s2.71.93,4,1.36,2.49.81,3.7,1.19,2.4.75,3.61,1.11,2.44.73,3.72,1.09l4,1.1c1.42.38,2.92.76,4.53,1.16l-1-.19-2.22-.47c-.93-.2-2-.45-3.29-.75s-2.67-.64-4.21-1-3.2-.84-5-1.33-3.65-1-5.6-1.64-4-1.24-6.05-1.93c-.15-.28-.22-.42-.36-.7Z" style="fill:none;stroke:#e6e6e6;stroke-miterlimit:10"/><path d="M8.36,123.49c1.48.54,2.87,1,4.17,1.48s2.55.86,3.74,1.25,2.34.75,3.47,1.1l3.39,1c1.14.33,2.3.67,3.5,1s2.45.68,3.78,1,2.73.71,4.25,1.08c-.12,0-.54-.09-1.21-.23l-2.71-.58c-1.14-.25-2.49-.56-4-.93s-3.25-.81-5.11-1.3-3.87-1-6-1.67-4.35-1.3-6.65-2Z" style="fill:none;stroke:#e6e6e6;stroke-miterlimit:10"/><path d="M194.35,127.44l-.16.3.14.17.24.32c-1.46.41-2.8.79-4.06,1.12s-2.44.65-3.59.94-2.24.56-3.35.82-2.21.52-3.36.77-2.35.51-3.62.78-2.64.53-4.13.81l1-.26,2.29-.55,3.39-.84c1.29-.33,2.75-.72,4.33-1.15s3.3-.92,5.11-1.46S192.35,128.08,194.35,127.44Z" style="fill:none;stroke:#e6e6e6;stroke-miterlimit:10"/><path d="M172.14,130.38l1.15-.28,2.54-.61c1.07-.26,2.33-.57,3.77-.94s3.05-.8,4.8-1.28,3.64-1,5.64-1.64,4.1-1.27,6.29-2l-.57,1.09c-1.55.45-3,.85-4.33,1.22s-2.61.7-3.83,1-2.41.61-3.59.89-2.36.56-3.59.83-2.5.55-3.87.83S173.73,130.08,172.14,130.38Z" style="fill:none;stroke:#e6e6e6;stroke-miterlimit:10"/><path d="M171.83,127.29l1-.24,2.14-.51q1.35-.32,3.18-.78c1.21-.3,2.58-.66,4.06-1.05s3.11-.85,4.82-1.35,3.53-1,5.42-1.63,3.87-1.24,5.89-1.92l-.62,1.19c-1.71.51-3.27,1-4.75,1.38s-2.85.78-4.19,1.13-2.62.68-3.92,1-2.59.62-3.93.92-2.74.61-4.24.92S173.58,127,171.83,127.29Z" style="fill:none;stroke:#e6e6e6;stroke-miterlimit:10"/><path d="M171.52,124.19l1-.26,2.35-.55c1-.24,2.15-.52,3.48-.86s2.82-.72,4.44-1.16,3.38-.93,5.24-1.48,3.83-1.14,5.87-1.8,4.17-1.36,6.34-2.12c-.18.33-.26.5-.43.83l-.25.48c-1.58.49-3.06.93-4.45,1.33s-2.72.78-4,1.12-2.5.67-3.71,1l-3.62.89-3.73.86c-1.29.28-2.62.57-4,.86S173.14,123.89,171.52,124.19Z" style="fill:none;stroke:#e6e6e6;stroke-miterlimit:10"/><path d="M171.2,121.1l.91-.22,2-.48,3-.72c1.15-.29,2.44-.61,3.85-1s2.94-.79,4.57-1.25,3.35-1,5.15-1.52,3.68-1.14,5.62-1.78,3.92-1.33,5.94-2.06c-.19.39-.29.58-.49,1l-.22.44c-1.5.48-2.9.91-4.24,1.32s-2.61.76-3.84,1.11-2.4.67-3.56,1-2.3.6-3.44.88-2.27.56-3.44.84l-3.6.81c-1.24.28-2.53.55-3.89.82S172.73,120.82,171.2,121.1Z" style="fill:none;stroke:#e6e6e6;stroke-miterlimit:10"/><path d="M172.43,145.82l1.07-.27,2.4-.58,3.56-.89c1.35-.35,2.87-.75,4.53-1.21s3.44-1,5.34-1.53,3.89-1.2,6-1.87,4.23-1.42,6.44-2.2l.69.88c-1.69.55-3.26,1-4.75,1.49s-2.9.86-4.25,1.24-2.67.74-4,1.09-2.58.66-3.87,1-2.62.64-4,1-2.8.63-4.32.95S174.16,145.49,172.43,145.82Z" style="fill:none;stroke:#e6e6e6;stroke-miterlimit:10"/><path d="M172.11,142.72c.11,0,.46-.12,1-.25l2.25-.54c.94-.22,2.06-.5,3.33-.82s2.7-.7,4.26-1.12,3.25-.89,5-1.42,3.68-1.1,5.65-1.73,4-1.31,6.12-2l.45.57.21.27c-1.59.5-3.08,1-4.49,1.36s-2.73.79-4,1.15-2.51.68-3.73,1-2.43.62-3.66.92-2.46.58-3.76.87-2.64.59-4.07.88S173.75,142.41,172.11,142.72Z" style="fill:none;stroke:#e6e6e6;stroke-miterlimit:10"/><path d="M171.8,139.63c.11,0,.43-.11.95-.24l2.1-.49,3.11-.77c1.19-.3,2.53-.64,4-1s3-.83,4.73-1.31,3.46-1,5.32-1.59,3.8-1.21,5.79-1.88l.63.79c-1.5.46-2.9.87-4.22,1.25s-2.58.72-3.78,1-2.37.63-3.52.92-2.28.57-3.43.84l-3.54.81c-1.21.27-2.48.54-3.82.81S173.34,139.34,171.8,139.63Z" style="fill:none;stroke:#e6e6e6;stroke-miterlimit:10"/><path d="M171.48,136.54c.12,0,.51-.13,1.14-.28l2.57-.61c1.07-.26,2.34-.57,3.79-.94s3.07-.79,4.84-1.28,3.66-1,5.68-1.63,4.13-1.27,6.32-2c.24.3.36.45.59.76-1.64.48-3.15.91-4.57,1.3s-2.76.74-4.05,1.07-2.53.64-3.78.94-2.49.59-3.79.88-2.64.57-4.08.87S173.16,136.23,171.48,136.54Z" style="fill:none;stroke:#e6e6e6;stroke-miterlimit:10"/><path d="M27.55,127.64q4,1.1,7.87,2T43,131.38c2.47.52,4.91,1,7.3,1.45s4.74.85,7.05,1.22,4.6.7,6.84,1,4.47.58,6.66.82,4.35.46,6.5.65,4.26.35,6.37.49,4.2.25,6.28.34,4.15.16,6.21.2,4.12.07,6.18.07,4.12,0,6.18-.07,4.14-.11,6.22-.2,4.17-.2,6.28-.34,4.22-.3,6.37-.49,4.31-.4,6.5-.65,4.4-.51,6.65-.82,4.53-.63,6.84-1,4.67-.78,7.06-1.22,4.82-.93,7.3-1.45,5-1.1,7.57-1.72,5.19-1.29,7.86-2V154q-4,1.08-7.86,2c-2.57.62-5.1,1.19-7.57,1.72s-4.91,1-7.3,1.45-4.74.85-7.06,1.22-4.59.71-6.84,1-4.46.57-6.65.82-4.36.46-6.5.64-4.27.36-6.37.49-4.2.26-6.28.35-4.15.15-6.22.2-4.12.06-6.18.06-4.12,0-6.18-.06-4.13-.11-6.21-.2-4.17-.21-6.28-.35-4.23-.3-6.37-.49-4.31-.4-6.5-.64-4.41-.52-6.66-.82-4.52-.64-6.84-1-4.66-.77-7.05-1.22-4.83-.92-7.3-1.45-5-1.1-7.57-1.72-5.19-1.29-7.87-2V127.64Z" style="fill:none;stroke:#e6e6e6;stroke-miterlimit:10"/><path d="M27,127q4,1.11,7.91,2t7.63,1.74q3.74.8,7.35,1.47t7.1,1.24q3.49.56,6.89,1c2.26.31,4.5.58,6.7.83s4.39.47,6.55.66,4.29.35,6.42.49,4.22.26,6.32.35,4.18.16,6.26.21,4.15.06,6.22.06,4.15,0,6.23-.06,4.16-.12,6.26-.21,4.2-.21,6.32-.35,4.26-.3,6.42-.49,4.34-.41,6.54-.66,4.44-.52,6.7-.83,4.56-.65,6.89-1,4.7-.79,7.11-1.24,4.85-.94,7.35-1.47,5-1.11,7.62-1.74,5.23-1.31,7.92-2v27.46c-2.69.74-5.33,1.41-7.92,2s-5.13,1.21-7.62,1.75-4.94,1-7.35,1.47-4.78.86-7.11,1.24-4.62.71-6.89,1-4.49.58-6.7.83-4.38.46-6.54.65-4.3.36-6.42.5-4.23.26-6.32.35-4.18.16-6.26.2-4.15.07-6.23.07-4.15,0-6.22-.07-4.17-.11-6.26-.2-4.2-.21-6.32-.35-4.26-.3-6.42-.5-4.34-.4-6.55-.65-4.44-.52-6.7-.83-4.56-.65-6.89-1-4.7-.79-7.1-1.24-4.86-.94-7.35-1.47-5-1.12-7.63-1.75-5.22-1.3-7.91-2V127Zm149.65,1.36q-4,1.08-7.81,2T161.36,132q-3.69.78-7.25,1.43c-2.38.44-4.71.84-7,1.2s-4.56.7-6.79,1-4.43.56-6.61.8-4.32.46-6.45.64-4.24.35-6.33.48-4.17.25-6.23.34-4.12.16-6.17.2-4.09.07-6.14.07-4.09,0-6.14-.07-4.1-.11-6.17-.2-4.14-.2-6.23-.34-4.2-.29-6.32-.48-4.28-.4-6.46-.64-4.37-.5-6.6-.8-4.5-.63-6.8-1-4.63-.76-7-1.2-4.79-.91-7.25-1.43-5-1.08-7.52-1.69-5.15-1.27-7.81-2v25.31q4,1.08,7.81,2t7.52,1.69c2.46.52,4.87,1,7.25,1.43s4.7.84,7,1.21,4.56.69,6.8,1,4.43.57,6.6.81,4.33.45,6.46.63,4.23.35,6.32.49,4.17.24,6.23.33,4.12.16,6.17.2,4.1.07,6.14.07,4.09,0,6.14-.07,4.1-.11,6.17-.2,4.14-.2,6.23-.33,4.2-.3,6.33-.49,4.28-.39,6.45-.63,4.38-.51,6.61-.81,4.49-.63,6.79-1,4.63-.77,7-1.21,4.79-.91,7.25-1.43,5-1.08,7.51-1.69,5.16-1.27,7.81-2V128.32Z" style="fill:none;stroke:#e6e6e6;stroke-miterlimit:10"/><path d="M177.74,127c-2.08.76-12.54,3.13-12.54,3.13v-9.3Z" style="fill:none;stroke:#e6e6e6;stroke-miterlimit:10"/><path d="M28.67,127.44c2.08.75,12.54,3.12,12.54,3.12v-9.3Z" style="fill:none;stroke:#e6e6e6;stroke-miterlimit:10"/><path d="M155.78,160.06s.48,7.71-3.91,12.1-17,9.79-50.71,9.79-46.32-5.4-50.71-9.79-3.91-12.1-3.91-12.1" style="fill:none;stroke:#e6e6e6;stroke-miterlimit:10;stroke-width:1.34481px"/><path d="M151.38,163.91s-1.09,8.09-8.41,10c-14.52,3.72-24.4,1.87-24.4,1.87s3.45-1.91,17.67-3.75l1.06-.14c15.13-1.83-11.94-1.51-17.11-2S147,167.75,151.38,163.91Z" style="fill:#bcbcbc;stroke:#e6e6e6;stroke-miterlimit:10"/><path d="M85.49,174.93a113.74,113.74,0,0,1-24.13-.46c-.82-.1-1.62-.22-2.42-.35-2.77-.43-5.46-1-8-1.59-.46-.47-.89-.94-1.28-1.42,1,.3,2,.57,3,.84q2.85.74,5.72,1.31a97.89,97.89,0,0,0,9.8,1.4A129.2,129.2,0,0,0,85.49,174.93Z" style="fill:#bcbcbc;stroke:#e6e6e6;stroke-miterlimit:10"/><path d="M86,177.43a125.81,125.81,0,0,1-24.84-.36c-.57-.06-1.12-.13-1.67-.21-.78-.1-1.55-.21-2.31-.34a19.55,19.55,0,0,1-2.51-1.24c2,.43,4,.79,6,1.09,2.14.32,4.24.57,6.26.75A137.41,137.41,0,0,0,86,177.43Z" style="fill:#bcbcbc;stroke:#e6e6e6;stroke-miterlimit:10"/><path d="M85,172.42a103.17,103.17,0,0,1-21.74-.34c-2.26-.29-4.46-.65-6.6-1.1a79.11,79.11,0,0,1-8.52-2.21,14.08,14.08,0,0,1-.75-1.65,70.47,70.47,0,0,0,8,2.62l.42.1a87.62,87.62,0,0,0,13.52,2.34A116.22,116.22,0,0,0,85,172.42Z" style="fill:#bcbcbc;stroke:#e6e6e6;stroke-miterlimit:10"/><path d="M84.51,169.92a89.84,89.84,0,0,1-19.34-.24,75.41,75.41,0,0,1-11-2.17q-3.48-.94-6.71-2.16l-.59-.23a14.54,14.54,0,0,1-.29-1.84A68.41,68.41,0,0,0,53,165.92q2.58.92,5.25,1.61a77.08,77.08,0,0,0,12.38,2.18A103.34,103.34,0,0,0,84.51,169.92Z" style="fill:#bcbcbc;stroke:#e6e6e6;stroke-miterlimit:10"/><path d="M84,167.42a78.55,78.55,0,0,1-16.94-.13,70.31,70.31,0,0,1-15.88-3.81l-.08,0q-2.37-.88-4.61-1.9a14.45,14.45,0,0,1,.16-2q1.27.74,2.67,1.41l.62.3A60.05,60.05,0,0,0,61,165.33a68,68,0,0,0,10.85,1.9A88.9,88.9,0,0,0,84,167.42Z" style="fill:#bcbcbc;stroke:#e6e6e6;stroke-miterlimit:10"/><line x1="98.31" y1="20.73" x2="98.31" y2="0.45" style="fill:none;stroke:#e6e6e6;stroke-miterlimit:10;stroke-width:0.9955149999999999px"/><path d="M98.31,1.33a14.19,14.19,0,0,1,11.28.73,20.8,20.8,0,0,0,10.78,2.5s-2.67,3-5.46,3.48a9.72,9.72,0,0,0,6.78,2.55s-1.74,3.74-12.56.59-10.82-.59-10.82-.59" style="fill:none;stroke:#e6e6e6;stroke-miterlimit:10;stroke-width:0.9955149999999999px"/><path d="M99,3.42l-.39.08a5.32,5.32,0,0,0-.3.82A18,18,0,0,1,103,3.66a16.73,16.73,0,0,1,4.7.65,19.92,19.92,0,0,1,4.55,2.1,16.94,16.94,0,0,0-6.35-2.87A18.23,18.23,0,0,0,99,3.42Z" style="fill:#bcbcbc;stroke:#e6e6e6;stroke-miterlimit:10"/><path d="M113,5.23a18.91,18.91,0,0,0-7-3.13,29.17,29.17,0,0,0-7.22-.2,3.7,3.7,0,0,0-.47.29,3.08,3.08,0,0,0-.52.5,36.91,36.91,0,0,1,5-.48,18.1,18.1,0,0,1,5.17.71A20.57,20.57,0,0,1,113,5.23Z" style="fill:#bcbcbc;stroke:#e6e6e6;stroke-miterlimit:10"/><path d="M99.46,4.85c-.45.07-.9.16-1.34.27A7.9,7.9,0,0,0,98,6l.4-.12a17.17,17.17,0,0,1,4.71-.73,14.52,14.52,0,0,1,4.23.58,17.38,17.38,0,0,1,4.1,1.89A15.43,15.43,0,0,0,105.74,5,16.39,16.39,0,0,0,99.46,4.85Z" style="fill:#bcbcbc;stroke:#e6e6e6;stroke-miterlimit:10"/><path d="M99.93,6.27c-.67.11-1.34.25-2,.42h0c0,.29,0,.58,0,.88.34-.12.68-.24,1-.34a15.64,15.64,0,0,1,4.31-.67,13,13,0,0,1,3.75.52,15.54,15.54,0,0,1,3.65,1.68,13.54,13.54,0,0,0-5-2.37A14.51,14.51,0,0,0,99.93,6.27Z" style="fill:#bcbcbc;stroke:#e6e6e6;stroke-miterlimit:10"/><path d="M100.38,7.68a21.13,21.13,0,0,0-2.45.56c0,.31,0,.61,0,.92a13.77,13.77,0,0,1,1.53-.52A14.19,14.19,0,0,1,103.42,8a11.89,11.89,0,0,1,3.29.45A13.56,13.56,0,0,1,109.9,10a11.86,11.86,0,0,0-4.41-2.12A13.22,13.22,0,0,0,100.38,7.68Z" style="fill:#bcbcbc;stroke:#e6e6e6;stroke-miterlimit:10"/><path d="M63.33,74.7s24.59,7.28,33,15.92c0,0,2.22,3.35,6.1-1.08s23.75-13.21,23.75-13.21" style="fill:none;stroke:#e6e6e6;stroke-miterlimit:10;stroke-width:0.9955149999999999px"/><path d="M77.54,75.73c3.3,1.44,6.52,3,9.69,4.72A81,81,0,0,1,96.49,86c.35.26.76.59,1,.77a2.46,2.46,0,0,0,1.06.35A2.52,2.52,0,0,0,99.68,87a3.6,3.6,0,0,0,1-.66c1.42-1.11,2.84-2.22,4.32-3.24a68.3,68.3,0,0,1,9.22-5.61c-1.51,1-3,2-4.45,3s-2.9,2.09-4.31,3.19-2.81,2.21-4.18,3.37a4.31,4.31,0,0,1-1.23.81,3.38,3.38,0,0,1-3-.22c-.47-.3-.75-.54-1.13-.81-2.86-2.09-6-3.9-9-5.73S80.65,77.53,77.54,75.73Z" style="fill:#e6e6e6"/><path d="M36.11,116.76v-3.93l1.68.64c0-1.84,0-3.37,0-4.8s0-2.76,0-4.19,0-3,0-4.81l-1.74-.15V95.61l3.93,0,3.42,0,3.93,0a11.3,11.3,0,0,1,3.28.45,5.31,5.31,0,0,1,3.6,3.55,8.88,8.88,0,0,1,.39,3,13.61,13.61,0,0,1-.2,2.22,6.2,6.2,0,0,1-.51,1.64,3.45,3.45,0,0,1-.93,1.17,4.75,4.75,0,0,1-1.43.77,7.46,7.46,0,0,1,1.51,1.1,6.24,6.24,0,0,1,1.23,1.6,8.82,8.82,0,0,1,.82,2.17,11,11,0,0,1,.26,2.71,11.81,11.81,0,0,1-.56,3.62,4.21,4.21,0,0,1-1.47,2.12,4.06,4.06,0,0,1-2.53.62,12.06,12.06,0,0,1-3.69-.89c-1.49-.57-2.73-1.07-3.88-1.55s-2.21-.93-3.36-1.44S37.56,117.46,36.11,116.76Zm8-16.46c0,1,0,1.84,0,2.63s0,1.58,0,2.63l1.82.29c.8.13,1.34,0,1.63-.5a4,4,0,0,0,.45-2,3.26,3.26,0,0,0-.52-2,1.86,1.86,0,0,0-1.41-.81Zm2.15,16.08a1.67,1.67,0,0,0,1.68-.31,2.76,2.76,0,0,0,.77-2.18,4.76,4.76,0,0,0-.58-2.51A2.67,2.67,0,0,0,46.22,110l-2.29-.52c0,1.22,0,2.13,0,3s0,1.83,0,3.05Z" style="fill:#e6e6e6"/><path d="M56.59,95.75l4.81,0,4.81,0c0,1.16,0,2,0,2.9s0,1.74-.06,2.91l-1.64-.09-.1,4.8-.1,4.8a40.56,40.56,0,0,0,.11,4.38,11.57,11.57,0,0,0,.54,2.76,3.44,3.44,0,0,0,.92,1.5,2.73,2.73,0,0,0,1.29.59,2.44,2.44,0,0,0,1.27-.07,2,2,0,0,0,1-1.09,9.17,9.17,0,0,0,.68-2.63,41.1,41.1,0,0,0,.3-4.78l.1-4.92c0-1.47.05-2.95.09-4.92l-1.64-.07c0-1.21,0-2.12.06-3s0-1.82.06-3l4.48,0H78c0,1.25,0,2.18,0,3.12s0,1.87,0,3.12L76.26,102c0,1.56-.05,2.85-.07,4.06l-.06,3.54c0,1.21,0,2.5-.06,4a48.53,48.53,0,0,1-.34,5.16,24.87,24.87,0,0,1-.81,4.06,11.49,11.49,0,0,1-1.29,2.94,5.9,5.9,0,0,1-2.81,2.41,6.16,6.16,0,0,1-3.8.13,10.74,10.74,0,0,1-4-2.09,12.06,12.06,0,0,1-2.88-3.47,14.49,14.49,0,0,1-1.26-3.07,21.84,21.84,0,0,1-.72-3.73,32.81,32.81,0,0,1-.17-4.42c0-1.38,0-2.54.07-3.61s0-2.07.07-3.15,0-2.23.08-3.61l-1.69-.1c0-1.07,0-1.88.05-2.68S56.57,96.82,56.59,95.75Z" style="fill:#e6e6e6"/><path d="M79.2,95.83l4.92,0H89a9.7,9.7,0,0,1,4.26.82,6.26,6.26,0,0,1,2.55,2.24,8.56,8.56,0,0,1,1.24,3.34,25.08,25.08,0,0,1,.31,4.09,10.89,10.89,0,0,1-.35,2.75,7.73,7.73,0,0,1-.94,2.2,6,6,0,0,1-1.41,1.54,4.06,4.06,0,0,1-1.77.8,3.86,3.86,0,0,1,1.52.87,6.6,6.6,0,0,1,1.26,1.63,9.7,9.7,0,0,1,1.22,4.8,15.69,15.69,0,0,0,.14,2.55c.11.61.3.92.59.93.47,0,.71-.53.71-1.62,0-.67,0-1,0-1.68l2.06,0v2.8a20.18,20.18,0,0,1-.22,3,9.13,9.13,0,0,1-.74,2.6,4.83,4.83,0,0,1-1.4,1.78,3.26,3.26,0,0,1-2.18.63,5.59,5.59,0,0,1-2.67-.74,5.33,5.33,0,0,1-1.86-2,10.59,10.59,0,0,1-1.08-3,19.92,19.92,0,0,1-.34-4c0-1.14,0-2.08-.07-2.82a4.82,4.82,0,0,0-.4-1.76,1.91,1.91,0,0,0-.93-.93,4.47,4.47,0,0,0-1.62-.33c0,1.55,0,2.71,0,3.87s0,2.32,0,3.87l1.88.14c0,1.33,0,2.32,0,3.31s0,2,0,3.32c-1.34-.11-2.45-.22-3.48-.33s-2-.22-3-.35S80,130,78.7,129.8c0-1.28,0-2.24,0-3.2s0-1.93,0-3.21l1.72.2c0-1.71,0-3.24.06-4.68s0-2.76.06-4.06,0-2.56,0-3.86,0-2.63,0-4.06.05-3,.07-4.68l-1.7,0c0-1.27,0-2.23,0-3.18S79.18,97.11,79.2,95.83Zm7.87,6.52c0,1.7,0,3,0,4.25s0,2.55,0,4.25l1.37.05a2.45,2.45,0,0,0,2.15-1,4.89,4.89,0,0,0,.81-3,6.41,6.41,0,0,0-.69-3.39,2.3,2.3,0,0,0-2-1.14Z" style="fill:#e6e6e6"/><path d="M115.91,127.59a6.65,6.65,0,0,1-1.83,2.66A5,5,0,0,1,111,131.6a6.06,6.06,0,0,1-3.82-1,10,10,0,0,1-3.1-3.5,17.47,17.47,0,0,1-1.18-2.57,25.82,25.82,0,0,1-.89-3.06,26.25,26.25,0,0,1-.57-3.51,37.72,37.72,0,0,1-.19-3.92,39.22,39.22,0,0,1,.2-4,29.57,29.57,0,0,1,1.51-6.82,21.23,21.23,0,0,1,1.17-2.71,12.59,12.59,0,0,1,3-3.85,5.4,5.4,0,0,1,3.45-1.37,5.87,5.87,0,0,1,2.69.55,6.59,6.59,0,0,1,1.73,1.25,6,6,0,0,1,1,1.39,9.62,9.62,0,0,0,.52,1l.6-3.58h4.51c0,1.92,0,3.52.07,5s0,2.88.06,4.38,0,3.1.07,5l-2.73.15-2.73.14a12.44,12.44,0,0,0-.35-2.68,6.79,6.79,0,0,0-.8-2,3.82,3.82,0,0,0-1.11-1.2,2.18,2.18,0,0,0-1.28-.4,2.36,2.36,0,0,0-1.68.81,6.74,6.74,0,0,0-1.32,2.1,13.81,13.81,0,0,0-.83,3.06,20.53,20.53,0,0,0-.29,3.63,22.82,22.82,0,0,0,.3,3.61,12.6,12.6,0,0,0,.83,2.93,5.29,5.29,0,0,0,1.34,1.93,2.39,2.39,0,0,0,1.81.63,2.63,2.63,0,0,0,2-.85,5.39,5.39,0,0,0,1-1.8c0-.84,0-1.26,0-2.09l-1.88.11c0-1.07,0-1.88,0-2.68s0-1.61,0-2.69l3.54-.17,3.08-.19,3.53-.25c0,1,0,1.81,0,2.59s0,1.55,0,2.59l-1.22.12c0,1.62,0,3,.06,4.23s0,2.44.05,3.7,0,2.61.06,4.23c-1.23.19-2.15.31-3.08.43s-1.85.22-3.09.35C116.5,129.42,116.31,128.81,115.91,127.59Z" style="fill:#e6e6e6"/><path d="M125,95.83l4.91,0h4.22l4.22,0,4.9,0,.1,4.66.1,4.67-2.61.24-2.62.23c0-1.57-.05-2.36-.08-3.94l-4.85.24c0,1.27,0,2.22.06,3.16s0,1.9.07,3.17l2.88-.27c.86-.08,1.72-.16,2.87-.29,0,1.17.05,2.05.07,2.92s0,1.76.06,2.92l-2.88.43-2.89.39c0,1.5.06,2.62.08,3.74s0,2.25.07,3.74c1.95-.35,2.92-.54,4.86-1l-.09-4.11c1.05-.18,1.84-.33,2.62-.48s1.57-.3,2.61-.51l.1,4.77.1,4.77c-1.81.54-3.4,1-4.89,1.36s-2.85.72-4.23,1-2.76.61-4.26.91-3.11.6-5,.9c0-1.28,0-2.24,0-3.2s0-1.92,0-3.2l1.93-.27c0-1.65,0-3.14-.07-4.53s-.05-2.68-.07-3.94l-.06-3.74c0-1.26,0-2.55-.07-3.94s0-2.88-.08-4.53l-1.91.06c0-1.27,0-2.22,0-3.17S125,97.1,125,95.83Z" style="fill:#e6e6e6"/><path d="M144.77,95.75l4.91,0,4.92,0a14,14,0,0,1,4.27.53,6.53,6.53,0,0,1,2.57,1.41,4.46,4.46,0,0,1,1.25,2.07,9.49,9.49,0,0,1,.33,2.56,5,5,0,0,1-.31,1.79,6,6,0,0,1-.9,1.58,6.74,6.74,0,0,1-1.36,1.3,6.36,6.36,0,0,1-1.7.92,3.89,3.89,0,0,1,2.72,1,4,4,0,0,1,.87,1.19,3.57,3.57,0,0,1,.33,1.56,6.56,6.56,0,0,0,.16,1.57c.1.35.29.48.56.38.44-.16.67-.58.66-1.25v-1l1.95-.65v1.67a9,9,0,0,1-.2,1.9,6.55,6.55,0,0,1-.69,1.86,7.44,7.44,0,0,1-1.29,1.69,6.8,6.8,0,0,1-2,1.35c-1.92.86-3.35.9-4.3.1s-1.44-2.32-1.47-4.45a19.71,19.71,0,0,0-.12-2,2.15,2.15,0,0,0-.43-1.15,1.26,1.26,0,0,0-.91-.44,6,6,0,0,0-1.59.17c0,1.17,0,2,.06,2.93l.05,2.94,1.81-.55.08,4.87c-1.26.49-2.33.87-3.32,1.23s-1.92.67-2.91,1-2.08.68-3.37,1.08c0-1.1,0-1.92,0-2.74s0-1.65-.06-2.75l1.68-.43c0-1.78-.07-3.33-.1-4.78s-.06-2.78-.09-4.12-.06-2.67-.09-4.11-.06-3-.1-4.79l-1.69.11c0-1.09,0-1.91-.06-2.73S144.79,96.84,144.77,95.75Zm8,4.88c0,1.29,0,2.25.06,3.22s0,1.93.06,3.22l1.34-.22a3.37,3.37,0,0,0,2.08-1.09,3.9,3.9,0,0,0,0-4.6,2.43,2.43,0,0,0-2-.64Z" style="fill:#e6e6e6"/><text transform="translate(55.64 157.41)" style="font-size:19.92363929748535px;fill:#fff;stroke:#e6e6e6;stroke-miterlimit:10;font-family:PeaceSans, Peace Sans">H O U S E</text></svg>